<?xml version="1.0" encoding="UTF-8"?>
<svg id="Livello_1" data-name="Livello 1" xmlns="http://www.w3.org/2000/svg" xmlns:xlink="http://www.w3.org/1999/xlink" viewBox="0 0 841.89 354.9">
  <defs>
    <style>
      .cls-1 {
        fill: none;
      }

      .cls-2 {
        fill: #ffc72c;
      }

      .cls-3 {
        clip-path: url(#clippath);
      }
    </style>
    <clipPath id="clippath">
      <rect class="cls-1" x="10.02" y="14.8" width="821.85" height="325.3"/>
    </clipPath>
  </defs>
  <path class="cls-2" d="M457.4,283.68c2.41,2.32,3.6,5.16,3.6,8.54s-1.19,6.19-3.6,8.5c-2.38,2.29-5.32,3.43-8.82,3.43s-6.49-1.14-8.85-3.4c-2.38-2.3-3.57-5.14-3.57-8.54s1.19-6.23,3.55-8.51c2.38-2.29,5.34-3.44,8.88-3.44s6.42,1.14,8.82,3.41M454.92,298.43c1.76-1.74,2.64-3.81,2.64-6.21s-.88-4.47-2.64-6.21c-1.73-1.73-3.85-2.59-6.34-2.59s-4.63.86-6.36,2.59c-1.74,1.71-2.61,3.79-2.61,6.21s.86,4.51,2.58,6.21c1.74,1.72,3.86,2.58,6.4,2.58s4.61-.86,6.34-2.58"/>
  <path class="cls-2" d="M503.27,280.56v23.31h-2.61l-15.51-17.63v17.63h-3.31v-23.31h2.64c1.5,1.81,2.95,3.5,4.35,5.09,1.39,1.59,2.79,3.15,4.21,4.68,1.16,1.3,2.31,2.6,3.46,3.9,1.15,1.3,2.31,2.63,3.46,3.97v-17.64h3.32ZM503.27,280.56"/>
  <path class="cls-2" d="M563.41,280.56v3h-8.23v20.31h-3.32v-20.31h-8.24v-3h19.79ZM563.41,280.56"/>
  <path class="cls-2" d="M601.6,280.56v23.31h-3.32v-10.28h-13v10.28h-3.31v-23.31h3.31v10.03h13v-10.03h3.32ZM601.6,280.56"/>
  <path class="cls-2" d="M633.08,300.88v3h-13.88v-23.32h13.65v3h-10.34v7.1h10.05v2.99h-10.05v7.23h10.57ZM633.08,300.88"/>
  <path class="cls-2" d="M685.67,292.95c1.14,1.07,1.7,2.47,1.7,4.25,0,2.09-.74,3.76-2.26,4.96-1.47,1.15-3.45,1.73-5.91,1.73h-7.21v-23.32h5.56c1.16,0,2.22.13,3.19.4.96.26,1.81.67,2.53,1.23,1.46,1.18,2.19,2.8,2.19,4.84,0,1.85-.7,3.34-2.09,4.49.88.31,1.64.79,2.29,1.43h0ZM680.84,289.74c.4-.3.69-.65.89-1.05.2-.41.3-.9.3-1.5,0-.66-.1-1.2-.3-1.64-.2-.44-.5-.79-.86-1.07-.41-.29-.93-.53-1.55-.68-.64-.16-1.42-.23-2.34-.23h-1.67v7.07h1.77c1.71,0,2.98-.3,3.76-.89M682.74,299.93c.81-.61,1.22-1.47,1.22-2.57,0-.68-.1-1.24-.31-1.67-.22-.44-.54-.79-.97-1.07-.47-.33-1.06-.56-1.76-.74-.7-.17-1.55-.25-2.59-.25h-3.02v7.26h3.57c.88,0,1.63-.09,2.26-.26.62-.17,1.16-.4,1.61-.7"/>
  <path class="cls-2" d="M718.72,300.88v3h-13.88v-23.32h13.65v3h-10.33v7.1h10.04v2.99h-10.04v7.23h10.55ZM718.72,300.88"/>
  <path class="cls-2" d="M748.01,280.41l10.85,23.46h-3.52l-3.47-7.51h-9.69l-3.48,7.51h-3.54l10.88-23.46h1.96ZM743.57,293.37h6.92l-3.48-7.52-3.43,7.52ZM743.57,293.37"/>
  <path class="cls-2" d="M793.9,298.18v3.57c-.73.42-1.43.78-2.1,1.05-.66.28-1.35.52-2.06.74-.74.23-1.46.4-2.15.49-.69.1-1.36.15-2.03.15-3.69,0-6.74-1.11-9.14-3.34-2.43-2.23-3.64-5.09-3.64-8.59s1.21-6.24,3.64-8.54c1.22-1.15,2.59-2.01,4.1-2.56,1.51-.56,3.15-.85,4.93-.85,1.27,0,2.58.17,3.93.51.73.17,1.43.38,2.09.64.67.25,1.39.59,2.15.99v3.72c-1.09-.61-1.98-1.08-2.67-1.38-.69-.31-1.34-.56-1.96-.74-1.27-.39-2.55-.58-3.83-.58-2.56,0-4.67.84-6.38,2.52-1.71,1.65-2.58,3.75-2.58,6.28s.84,4.73,2.51,6.33c1.7,1.64,3.88,2.45,6.53,2.45,1.46,0,2.83-.22,4.09-.67.33-.1.64-.22.95-.35.31-.13.65-.28,1-.45.35-.17.74-.37,1.16-.59.42-.22.89-.48,1.43-.78h0ZM793.9,298.18"/>
  <path class="cls-2" d="M831.45,280.56v23.31h-3.32v-10.28h-13v10.28h-3.31v-23.31h3.31v10.03h13v-10.03h3.32ZM831.45,280.56"/>
  <path class="cls-2" d="M505.19,51.82c6.97,2.36,12.99,6.19,18.05,11.48,8.49,9.26,12.74,21.02,12.74,35.29v30.33c0,13.7-4.87,25.46-14.6,35.29-9.65,9.73-21.39,14.59-35.24,14.59h-49.99V48.84h49.99c3.72,0,7.26.28,10.6.85v33.59c-2.77-1.6-6.02-2.42-9.74-2.42h-19.19v66.76h19.19c5.06,0,9.36-1.75,12.89-5.24,3.54-3.59,5.31-7.89,5.31-12.9V51.82ZM467.8,187.16v70.01h-31.65v-70.01h31.65ZM467.8,187.16"/>
  <path class="cls-2" d="M659.73,217.63l6.74,39.54h-33.38l-6.02-39.54h32.66ZM592.56,209.27l-7.74,47.9h-33.08l26.07-152.21h30.22l-10.6,73.55h23.49l-11.74-81.92h-29.94l8.31-47.76h43.69l27.21,160.43h-65.88ZM592.56,209.27"/>
  <path class="cls-2" d="M751.25,51.82c6.96,2.36,12.98,6.19,18.05,11.48,8.49,9.26,12.74,21.02,12.74,35.29v30.33c0,13.7-4.87,25.46-14.61,35.29-9.64,9.73-21.38,14.59-35.23,14.59h-49.98V48.84h49.98c3.73,0,7.26.28,10.6.85v33.59c-2.76-1.6-6.02-2.42-9.73-2.42h-19.19v66.76h19.19c5.06,0,9.35-1.75,12.89-5.24,3.54-3.59,5.31-7.89,5.31-12.9V51.82ZM713.87,187.16v70.01h-31.65v-70.01h31.65ZM713.87,187.16"/>
  <path class="cls-2" d="M799.66,48.84h31.8v28.91h-31.8v-28.91ZM831.45,257.18h-31.8V86.11h31.8v171.06ZM831.45,257.18"/>
  <g class="cls-3">
    <path class="cls-2" d="M336.48,228.59c-.11-.17-.25-.31-.42-.43-.16-.13-.34-.23-.53-.3-5.43-2.22-10.86-3.48-16.3-3.74-.29-.02-.57-.03-.88-.05-6.71-.21-13.44,1.06-20.16,3.82-6.24,2.56-12.47,3.73-18.7,3.5-5.2-.19-10.41-1.36-15.6-3.5-.05-.02-.1-.05-.16-.06-6.18-2.53-12.37-3.79-18.56-3.79s-12.48,1.28-18.72,3.85c-.05.01-.09.03-.12.05-5.68,2.32-11.34,3.48-17.02,3.48s-11.44-1.18-17.16-3.53c-.08-.03-.15-.06-.21-.08-3.43-1.39-6.87-2.39-10.32-3.02-.99-.18-2-.32-2.98-.43-6.41-.74-12.81-.11-19.22,1.86-1.55.48-3.12,1.04-4.67,1.68-.12.04-.24.11-.35.19-.11.07-.21.15-.3.25-.1.09-.18.19-.26.3-.07.11-.14.22-.18.35-.06.12-.09.25-.11.37-.03.13-.05.27-.05.4,0,.12.01.26.05.38.02.13.05.26.11.38.04.12.11.23.19.35.07.11.15.21.25.3.09.09.19.18.3.25.11.08.23.13.35.19.12.04.25.09.37.11.14.02.27.03.41.03.12,0,.26,0,.38-.03.14-.02.26-.07.38-.11,2.52-1.04,5.05-1.85,7.57-2.43,5.33-1.22,10.66-1.43,15.98-.6,3.58.55,7.17,1.56,10.76,3.03.06.02.12.04.2.07,6.23,2.54,12.46,3.79,18.68,3.77,6.18-.02,12.36-1.3,18.53-3.84.04-.02.09-.05.12-.06,5.69-2.32,11.36-3.48,17.04-3.48s11.43,1.18,17.14,3.54c.06.02.1.03.16.05,6.18,2.53,12.38,3.79,18.56,3.79,1.66,0,3.31-.09,4.98-.28,4.57-.49,9.15-1.68,13.73-3.57,5.1-2.11,10.22-3.27,15.33-3.49,6.32-.28,12.65.88,18.97,3.49.25.1.51.15.78.15h.01c.12,0,.26-.01.38-.03.14-.02.26-.07.38-.11.12-.06.24-.11.35-.19.11-.07.22-.15.31-.25.09-.09.18-.19.25-.3.08-.11.15-.22.19-.35.05-.12.09-.25.11-.38.02-.12.05-.26.05-.39,0-.2-.03-.4-.1-.59-.06-.2-.15-.38-.27-.54"/>
    <path class="cls-2" d="M281.77,159.49c-7.67,7.6-16.56,12.31-26.65,14.13,10.09-5.6,17.98-19.1,20.87-35.99h19c-2.32,8.14-6.72,15.43-13.22,21.86M207.18,158.1h13.02c3.66,6.9,8.38,12.24,13.75,15.34-10.46-2.07-19.38-7.18-26.78-15.34M200.51,152.91c-20.92,4.81-42.31,5.28-64.16,1.45-5.78-3.58-11.83-6.2-18.15-7.82,6.67-1.65,12.9-4.34,18.69-8.08,18.72-3.22,37.12-3.27,55.19-.12.22.15.46.23.72.28,9.97,1.76,19.61,4.38,28.94,7.86-6.53,2.43-13.37,4.47-20.5,6.11-.27.07-.51.18-.72.33M121.99,129.21c.11-.09.22-.19.32-.31l11.93-11.8h18.89c-2.28,3.36-4.95,6.55-8.02,9.6-3.09,3.05-6.34,5.72-9.76,7.99h-.05c-.26.04-.5.14-.72.28-8.63,5.44-17.9,8.54-27.82,9.32l15.23-15.07ZM103.93,141.43c.64-7.69,2.75-15.08,6.34-22.17.12-.23.19-.48.21-.73,0-.06,0-.11.01-.17,2.19-4.11,4.93-8.02,8.21-11.69v20.14l-14.78,14.62ZM107.2,176.97c1.05,1.91,2.19,3.76,3.45,5.56.59,6.27,1.38,12.45,2.38,18.52l-19.66,19.45c-1.19-8.96-2.14-17.98-2.81-27.07l16.65-16.47ZM119.53,230.1l-21.02,20.8c-1.72-8.43-3.21-16.9-4.45-25.44l19.79-19.6c1.51,8.26,3.4,16.33,5.68,24.23M128.79,256.44l-23.43,23.16c-.96-3.52-1.88-7.06-2.76-10.6.01-.08.01-.16.02-.23.01-.45-.12-.85-.38-1.2-.97-3.99-1.89-7.98-2.75-11.98l21.34-21.12c2.31,7.49,4.96,14.82,7.96,21.98M140.44,280.4l-26.7,26.42c-.38-1.1-.76-2.21-1.12-3.31,0-.16-.01-.31-.05-.47-.05-.33-.19-.61-.4-.88-1.71-5.16-3.32-10.36-4.84-15.57.01-.12.01-.26.01-.38-.03-.41-.18-.77-.44-1.09-.1-.36-.2-.71-.31-1.08l23.89-23.63c3,6.81,6.31,13.48,9.95,20M154.21,302.24l-30.74,30.43c-2.95-7.18-5.71-14.4-8.28-21.66l27.3-27.01c3.62,6.21,7.51,12.29,11.72,18.23M180.93,334.2h-53.32s28.97-28.66,28.97-28.66c7.28,9.94,15.39,19.5,24.34,28.66M89.51,174.17c3.91-6.1,7.46-12.54,10.67-19.32.78,6.5,2.49,12.62,5.12,18.35l-15.12,14.96c-.29-4.65-.52-9.32-.68-13.99M85.54,172.35h0c-.08.23-.11.46-.1.69-16.57,25.39-39.45,44.54-68.64,57.45,12.31-27.31,30.27-49.02,53.88-65.17.25-.06.5-.1.73-.16.26-.05.5-.17.71-.31,8.43-5.78,17-10.62,25.69-14.54-3.33,7.26-7.34,14.45-12.04,21.58-.09.14-.17.3-.23.46M44.05,161.99l13.66-13.52h34.48c-8.22,3.87-15.95,8.25-23.16,13.12-8.82,1.81-17.16,1.95-24.98.4M17.14,148.47h34.87l-12.55,12.4c-7.99-2.29-15.42-6.43-22.33-12.4M55.42,130.1l14.51,14.38H17.16c10.88-9.29,23.63-14.08,38.26-14.38M74.55,132.49s.05.05.08.07c.2.17.44.29.7.38,7.93,2.47,15.01,6.31,21.21,11.54h-20.91l-14.38-14.26c4.63.29,9.07,1.05,13.3,2.27M51.87,97.15c19.5,9.07,34.16,22.94,43.98,41.6-5.95-4.47-12.4-7.76-19.35-9.87-10.51-8.86-18.71-19.44-24.62-31.73M101.7,81.07c4.12,11.63,5.73,23.68,4.83,36.15-3.15,6.11-5.22,12.65-6.2,19.65-5.79-18.6-5.34-37.2,1.36-55.8M122.74,102.5c8.45-8.02,18.1-13.17,28.96-15.44.48.07.93-.02,1.34-.27,2.29-.42,4.62-.71,6.99-.89l-37.29,36.92v-20.32ZM162.82,89.71c-.08.27-.11.53-.08.8-.83,8.16-3.21,15.69-7.13,22.59h-17.35s24.64-24.39,24.64-24.39c-.02.33-.06.66-.08.99M166.49,93.18l26.2,10.74c-2.23,5.99-3.35,12.43-3.35,19.34,0,3.53.37,7.12,1.11,10.75-15.35-2.44-30.94-2.65-46.75-.62,1.44-1.22,2.86-2.52,4.25-3.89,10.46-10.36,16.64-22.47,18.53-36.33M197.32,103.66c.11-.25.16-.51.16-.78,1.16-2.64,2.56-5.18,4.2-7.62.17-.12.3-.28.43-.45.1-.17.19-.33.25-.51,1.79-2.53,3.85-4.95,6.2-7.27,2.33-2.31,4.78-4.35,7.33-6.12.18-.06.35-.15.5-.25.17-.11.33-.26.45-.41,2.48-1.64,5.05-3.02,7.73-4.17.27,0,.53-.06.78-.16.25-.1.46-.25.66-.43,2.49-.98,5.08-1.73,7.75-2.29-9.05,5.3-16.24,17.01-19.57,31.76h-17.54c.08-.21.14-.44.21-.64.2-.19.35-.41.45-.67M264.31,75.49c.19.19.42.33.66.43.25.1.52.16.79.16,2.67,1.15,5.24,2.53,7.7,4.17.14.15.28.29.46.41.16.1.33.19.52.25,2.56,1.77,5,3.81,7.33,6.12,2.33,2.32,4.41,4.74,6.2,7.28.02.06.07.12.09.18h-16.05c-3.91-9.91-9.78-17.56-16.71-21.47.19.02.37.05.57.02,2.92.57,5.73,1.38,8.44,2.45M295.92,112.67c-.02.2-.01.4.03.6.03.19.1.37.18.53.12.69.18,1.41.28,2.11h-19.52c-.54-6.27-1.74-12.18-3.48-17.55h17.12c.86,1.47,1.65,2.98,2.32,4.53,0,.27.05.51.15.76.1.25.25.46.44.64,1.07,2.69,1.9,5.47,2.48,8.37M277.13,119.78h19.31c.12,0,.24-.05.36-.07.07,1.17.15,2.35.15,3.56,0,3.63-.34,7.13-1.02,10.49h-19.36c.42-3.39.64-6.9.64-10.49,0-1.17-.03-2.33-.08-3.49M258.95,133.76c.18-3.46.27-6.98.27-10.49,0-8.58-.53-17.19-1.57-24.9h11.72c1.8,5.3,3.06,11.23,3.6,17.55h-7.82c-1.08,0-1.96.87-1.96,1.94s.88,1.93,1.96,1.93h8.06c.05,1.16.08,2.32.08,3.49,0,3.6-.24,7.11-.67,10.49h-13.69ZM258.71,137.63h13.35c-2.94,16.6-10.84,29.51-20.69,33.57,3.88-6.8,6.35-19.48,7.34-33.57M233.5,158.1c1.19,5.36,2.71,9.88,4.55,13.09-5.21-2.15-9.87-6.75-13.53-13.09h8.98ZM238.05,75.32c-3.52,6.15-5.88,17.14-7.03,29.64h-12.85c3.42-14.69,10.81-25.9,19.88-29.64M251.37,75.32c6.76,2.79,12.58,9.73,16.54,19.16h-10.83c-1.31-8.03-3.22-14.8-5.71-19.16M249.96,98.36h3.74c.98,7.05,1.61,15.44,1.61,24.9,0,3.67-.1,7.17-.27,10.49h-3.35c-1.08,0-1.96.87-1.96,1.94s.88,1.94,1.96,1.94h3.1c-1.57,21.7-6.5,34.93-10.08,34.93-2.26,0-5.03-5.22-7.18-14.47h10.93c1.08,0,1.96-.87,1.96-1.94s-.88-1.93-1.96-1.93h-11.75c-1.54-8.11-2.59-18.61-2.59-30.96,0-5.15.18-9.96.51-14.44h6.62c1.08,0,1.95-.87,1.95-1.94s-.87-1.93-1.95-1.93h-6.3c1.85-19.36,6.39-31,9.76-31,2.7,0,6.17,7.51,8.39,20.52h-3.14c-1.08,0-1.96.87-1.96,1.94s.88,1.94,1.96,1.94M212.59,130.97c.27,2.93.67,5.8,1.22,8.56-6.31-1.97-12.65-3.58-19.05-4.77-.29-1.27-.53-2.53-.73-3.79h18.56ZM193.38,123.27c0-5.08.65-9.89,1.96-14.44h18.1c-.8,4.59-1.23,9.43-1.23,14.44,0,1.29.06,2.56.11,3.83h-18.77c-.1-1.29-.18-2.56-.18-3.83M221.1,150.98c1.54-.56,3.1-1.14,4.64-1.75.75-.29,1.51-.59,2.25-.9.25-.1.47-.25.66-.43.18-.19.33-.4.43-.65.11-.25.16-.5.16-.76s-.04-.52-.16-.77c-.1-.25-.25-.47-.43-.66-.19-.18-.42-.32-.66-.42-3.29-1.36-6.6-2.59-9.93-3.72-.71-3.16-1.24-6.5-1.55-9.94h5.83c1.08,0,1.96-.87,1.96-1.94s-.88-1.93-1.96-1.93h-6.09c-.06-1.27-.12-2.54-.12-3.83,0-5.02.44-9.86,1.25-14.44h13.34c-.34,4.71-.51,9.58-.51,14.44,0,10.9.86,21.85,2.52,30.96h-10.24c-.48-1.05-.95-2.14-1.39-3.25M217.5,152.22c.27.68.55,1.35.83,2.01h-7.14c2.11-.62,4.21-1.29,6.31-2.01M212.2,291.63c23.27,0,44.08-5.91,62.41-17.72-18.23,16.68-39.03,25.02-62.41,25.02s-44.17-8.34-62.39-25.02c18.31,11.81,39.12,17.72,62.39,17.72M335.95,88.16c.11-.07.22-.16.31-.25.09-.09.18-.19.25-.3.08-.11.15-.23.19-.35.05-.12.09-.25.11-.38.02-.12.05-.26.05-.39,0-.12-.02-.26-.05-.39-.02-.12-.07-.25-.11-.37-.04-.12-.11-.23-.19-.35-.07-.11-.16-.21-.25-.3-.09-.1-.19-.18-.31-.26-.11-.07-.22-.13-.35-.18-.12-.05-.25-.09-.38-.11-.12-.03-.26-.04-.39-.04-.12,0-.26.01-.4.04-.12.02-.25.06-.37.11l-37.97,15.56c-.97-2.07-2.07-4.08-3.32-6.03l34.11-22.57c.22-.15.42-.32.56-.54.15-.22.25-.47.31-.72.04-.26.04-.51,0-.78-.06-.26-.16-.49-.31-.71-.15-.22-.34-.41-.56-.56-.21-.15-.46-.25-.72-.29-.26-.05-.53-.05-.79,0-.26.05-.5.15-.73.29l-34.15,22.59c-1.35-1.81-2.83-3.56-4.44-5.26l50.22-49.69c.19-.19.34-.4.44-.64.1-.25.16-.5.16-.77s-.06-.51-.16-.76c-.1-.25-.25-.47-.44-.64-.09-.1-.19-.18-.31-.26-.11-.07-.22-.13-.35-.18-.12-.06-.25-.09-.38-.11-.12-.03-.26-.04-.39-.04-.12,0-.26.01-.4.04-.12.02-.25.06-.37.11-.12.04-.24.11-.35.18-.11.08-.21.16-.3.26l-50.23,49.69c-1.71-1.59-3.48-3.05-5.31-4.39l40.86-60.51c.14-.22.25-.47.3-.72.06-.26.06-.53,0-.78-.05-.25-.16-.5-.3-.71-.15-.22-.33-.41-.55-.56-.22-.15-.47-.25-.73-.29-.26-.06-.53-.06-.79,0-.26.04-.51.14-.72.29-.22.15-.41.33-.56.56l-40.84,60.47c-1.97-1.24-4.01-2.33-6.1-3.29l17.11-40.86c.04-.12.08-.25.11-.38.02-.12.03-.25.03-.38,0-.13-.01-.27-.03-.4-.03-.12-.07-.25-.11-.37-.06-.12-.11-.23-.19-.35-.07-.11-.16-.21-.25-.3-.1-.1-.2-.18-.31-.25-.11-.08-.22-.15-.35-.19-.25-.1-.51-.16-.78-.16s-.52.06-.76.16c-.25.1-.47.25-.67.44-.18.19-.33.4-.43.64l-17.11,40.86c-2.15-.78-4.38-1.44-6.66-1.94l10.5-52.22c.05-.26.05-.53,0-.78-.05-.25-.16-.5-.3-.71-.15-.22-.34-.41-.55-.56-.22-.15-.47-.25-.73-.29-.26-.06-.52-.06-.79,0-.26.04-.51.14-.73.29-.21.15-.4.33-.55.56-.15.21-.25.46-.31.71l-10.5,52.27c-2.26-.33-4.55-.54-6.91-.6v-33.54c0-.12-.01-.26-.03-.39-.03-.12-.07-.25-.12-.37-.05-.12-.12-.23-.18-.35-.08-.11-.16-.21-.25-.3-.1-.1-.2-.18-.31-.26-.1-.07-.22-.13-.35-.18-.12-.06-.25-.09-.37-.11-.14-.03-.26-.04-.4-.04s-.27.01-.4.04c-.14.02-.26.06-.38.11-.12.04-.24.11-.35.18-.1.08-.21.16-.3.26-.09.09-.18.19-.25.3-.08.11-.14.22-.19.35-.05.12-.08.25-.12.37-.02.13-.03.27-.03.39v33.54c-2.36.07-4.65.27-6.91.6l-10.51-52.27c-.05-.25-.15-.5-.31-.71-.15-.22-.33-.41-.55-.56-.22-.15-.46-.25-.72-.29-.27-.06-.53-.06-.79,0-.27.04-.5.14-.73.29-.22.15-.4.33-.55.56-.16.21-.26.46-.3.71-.06.26-.06.53,0,.78l10.5,52.22c-2.28.5-4.5,1.16-6.66,1.94l-17.11-40.86c-.1-.25-.25-.46-.44-.64-.19-.19-.41-.34-.65-.44-.25-.1-.51-.16-.78-.16s-.53.06-.77.16c-.25.1-.47.25-.65.44-.19.19-.34.4-.44.64-.1.25-.16.5-.16.77,0,.25.06.51.16.76l17.11,40.87c-2.1.95-4.14,2.04-6.11,3.28l-40.84-60.47c-.14-.22-.33-.41-.55-.56-.22-.15-.46-.25-.73-.29-.26-.06-.52-.06-.79,0-.26.04-.5.14-.72.29-.11.08-.22.16-.31.25-.1.1-.18.2-.25.31-.08.1-.15.23-.19.35-.05.11-.09.25-.11.37-.03.13-.05.26-.05.39s.01.26.05.39c.02.13.07.26.11.38.04.12.11.23.19.35l40.86,60.51c-1.83,1.34-3.59,2.8-5.31,4.39l-52.4-51.84c-.09-.09-.19-.18-.31-.25-.11-.08-.22-.15-.35-.19-.11-.05-.25-.09-.37-.11-.14-.02-.26-.05-.4-.05s-.27.02-.39.05c-.14.02-.26.07-.38.11-.11.04-.24.11-.35.19-.1.07-.22.16-.31.25-.09.09-.18.19-.25.3-.08.11-.14.23-.19.35-.05.12-.09.24-.11.38-.02.12-.03.26-.03.39,0,.12.01.26.03.39.02.12.07.25.11.37.05.12.11.23.19.35.07.11.16.21.25.3l52.4,51.85c-1.62,1.7-3.1,3.46-4.45,5.26L85.25,15.13c-.11-.07-.22-.13-.35-.18-.12-.06-.25-.09-.38-.11-.12-.03-.26-.05-.4-.05-.12,0-.26.01-.4.05-.12.02-.25.05-.37.11-.12.04-.24.11-.35.18-.11.08-.21.16-.3.25-.1.1-.18.2-.25.31-.08.1-.15.23-.19.35-.05.11-.09.25-.11.37-.03.13-.05.26-.05.39s.01.26.05.39c.02.13.07.26.11.38.04.12.11.23.19.35.07.1.15.2.25.3.09.09.19.17.3.25l114.55,75.74c-1.25,1.96-2.35,3.97-3.32,6.04l-27.32-11.2c.14-1.75.19-3.51.19-5.31,0-.27-.05-.52-.15-.77-.11-.25-.25-.46-.44-.65-.19-.19-.4-.33-.65-.43-.25-.1-.51-.15-.78-.15-4.53,0-8.9.39-13.09,1.19L45.18,39.13c-.12-.04-.25-.09-.38-.11-.12-.02-.26-.03-.39-.03-.12,0-.26,0-.4.03-.12.02-.25.07-.37.11-.12.06-.24.11-.35.19-.11.07-.21.15-.3.25-.1.09-.18.19-.26.3-.07.11-.14.22-.18.35-.05.12-.09.25-.11.38-.03.12-.04.26-.04.39,0,.12,0,.26.04.39.02.12.06.25.11.37.05.12.11.23.18.35.08.11.16.21.26.3.09.1.19.18.3.26.11.07.23.13.35.18l101.76,41.72c-9.86,2.99-18.7,8.37-26.56,16.15-3.04,3.01-5.71,6.16-8.03,9.47-.05-12.22-2.47-24.03-7.24-35.43-.05-.12-.11-.25-.19-.36-.07-.1-.16-.2-.25-.3-.09-.09-.19-.17-.3-.24-.11-.07-.23-.13-.35-.19-.12-.05-.25-.08-.38-.11-.12-.02-.26-.03-.4-.03-.12,0-.26.01-.4.03-.12.03-.25.07-.37.11-.25.11-.47.26-.65.43-.19.19-.34.4-.44.66-7.35,17.59-9.36,35.19-6,52.78-10.86-16.19-25.92-28.24-45.16-36.13-.12-.06-.25-.09-.38-.11-.12-.03-.26-.05-.39-.05s-.26.01-.4.05c-.12.02-.25.05-.37.11-.12.04-.24.11-.35.18-.11.08-.21.16-.3.25-.1.1-.18.2-.26.31-.07.1-.14.22-.18.33-.1.26-.16.5-.16.77s.05.53.16.77c5.29,12.63,12.76,23.64,22.42,33.03-3.73-.61-7.59-.92-11.59-.92-18.06,0-33.48,6.32-46.26,18.96-.18.19-.33.41-.43.66-.1.23-.16.49-.16.76s.06.52.16.77c.1.23.25.46.43.65h.01c14.65,14.49,31.74,20.78,51.26,18.82-22.31,16.97-39.24,39.24-50.8,66.83-.04.12-.09.25-.11.38-.02.12-.03.26-.03.39,0,.12.01.26.03.38.02.13.07.26.11.38.06.12.11.23.19.35.07.11.16.21.25.3.09.09.2.18.3.25.11.08.23.13.35.19.25.1.51.16.78.16s.52-.06.76-.16c30.38-12.47,54.38-31.23,71.98-56.31,1.33,29.55,5.38,58.45,12.17,86.74-4.61-.39-9.05-1.45-13.31-3.2-.05-.02-.08-.03-.12-.05-.74-.3-1.49-.58-2.22-.85-11.69-4.21-23.38-3.91-35.07.9h-.01c-1.42.58-2.85,1.09-4.28,1.54-10,3.08-20.02,2.57-30.03-1.54-.25-.1-.5-.16-.77-.16-.14,0-.27.01-.4.03-.13.03-.26.07-.38.12-.12.05-.24.11-.35.18-.11.08-.21.15-.3.25-.1.1-.18.2-.25.31-.08.1-.14.22-.19.33-.05.12-.09.25-.11.38-.02.13-.05.26-.05.39,0,.2.03.4.1.6.06.19.15.37.26.53.12.17.27.32.43.45.17.12.34.23.54.29,12.45,5.09,24.9,5.08,37.33-.03.89-.37,1.79-.7,2.68-1.01,7.68-2.67,15.36-3.21,23.05-1.63,2.86.59,5.72,1.47,8.58,2.64.04.02.08.03.12.06,5.03,2.05,10.28,3.22,15.74,3.53,1.16,4.63,2.39,9.24,3.68,13.83-6.21.13-12.2-.99-17.99-3.37-.05-.02-.08-.03-.12-.06-3.05-1.24-6.09-2.17-9.15-2.81-9.38-1.94-18.77-.99-28.14,2.86-11.46,4.7-22.89,4.7-34.31,0-.25-.1-.51-.16-.78-.16-.14,0-.27.01-.41.03-.12.03-.25.07-.37.12-.12.05-.24.11-.35.18-.11.08-.21.15-.3.25-.1.09-.18.19-.25.3-.08.1-.14.22-.19.35-.05.11-.09.25-.11.37-.02.13-.05.26-.05.39,0,.21.03.4.1.6.06.19.15.37.26.55.12.16.26.31.43.43.16.12.34.22.53.29,12.44,5.09,24.88,5.08,37.34-.02,8.57-3.52,17.15-4.4,25.73-2.64,2.86.58,5.72,1.46,8.58,2.64.04.01.08.03.12.05,6.6,2.69,13.46,3.89,20.57,3.6,1.31,4.48,2.69,8.95,4.15,13.4-.98.13-1.97.25-2.95.31-6.94.53-13.71-.58-20.3-3.29h-.03s-.08-.05-.12-.06c-3.15-1.29-6.3-2.25-9.45-2.89-9.27-1.86-18.55-.88-27.83,2.93-11.46,4.7-22.89,4.7-34.31,0-.25-.1-.51-.16-.78-.16-.14,0-.27.01-.41.05-.12.02-.25.05-.37.11-.12.04-.24.11-.35.18-.11.08-.21.16-.3.26-.1.09-.18.19-.25.3-.08.11-.14.22-.19.35-.05.12-.09.25-.11.37-.02.13-.05.27-.05.39,0,.21.03.41.1.6.06.19.15.38.26.55.12.17.26.31.43.43.16.12.34.22.53.29,12.44,5.09,24.88,5.09,37.34-.02,8.58-3.54,17.17-4.41,25.74-2.64,2.85.58,5.71,1.46,8.57,2.64.03.01.08.03.12.04,7.87,3.22,15.96,4.34,24.27,3.33.57-.07,1.15-.14,1.71-.23,3.54,10.52,7.47,20.94,11.79,31.28.08.18.18.35.31.5.12.15.27.28.44.39.17.11.35.19.54.25.18.07.38.09.57.09h62.99c.12-.01.26-.02.39-.05.12-.03.25-.07.37-.11.12-.05.24-.12.35-.19.11-.08.21-.16.31-.25.1-.1.18-.2.26-.3.07-.11.13-.23.18-.35.06-.12.09-.25.11-.38.03-.13.05-.26.05-.39,0-.27-.06-.51-.16-.77-.1-.23-.25-.46-.44-.64-10.48-10.38-19.85-21.27-28.09-32.68-.02-.23-.08-.46-.18-.67-.1-.22-.24-.41-.41-.58-.18-.18-.38-.31-.61-.41-4.55-6.4-8.74-12.95-12.59-19.67.02-.12.03-.26.03-.38,0-.27-.05-.52-.15-.76-.1-.25-.26-.47-.44-.66-.2-.2-.45-.35-.72-.45-1.86-3.33-3.63-6.7-5.32-10.1,20.87,22.99,45.37,34.5,73.51,34.5,30.5,0,56.72-13.51,78.68-40.52v73.8c0,.13.01.27.05.39.02.13.06.26.11.38.05.11.11.23.19.35.07.1.14.2.25.3.09.09.19.17.31.25.11.08.22.13.35.19.12.05.25.09.37.11.14.02.27.03.4.03.14,0,.27-.01.39-.03.14-.02.26-.07.38-.11.12-.05.24-.11.35-.19.11-.08.21-.16.31-.25.09-.1.18-.2.25-.3.08-.11.14-.23.19-.35.05-.12.09-.25.11-.38.02-.12.05-.25.05-.39v-88.73c0-.13-.02-.27-.05-.39-.02-.13-.07-.26-.11-.38-.05-.12-.11-.23-.19-.35-.07-.11-.16-.21-.25-.3-.09-.1-.19-.18-.31-.25-.11-.08-.22-.13-.35-.19-.12-.05-.25-.09-.38-.11-.12-.02-.26-.04-.39-.04-.12,0-.26.02-.4.04-.12.02-.25.07-.37.11-.12.05-.24.11-.35.19-.11.07-.21.15-.31.25-.1.09-.18.19-.25.3-.08.11-.15.22-.19.35-.05.12-.09.25-.11.38-.03.12-.05.26-.05.39v8.26c-21.77,21.27-48,31.9-78.68,31.9s-57.38-10.82-79.27-32.49c-.14-.13-.28-.24-.45-.33-3.24-7.75-6.07-15.67-8.48-23.8.07-.2.1-.4.1-.61,0-.27-.05-.53-.16-.77-.1-.25-.25-.46-.44-.65-.03-.04-.08-.08-.13-.12-2.51-8.75-4.55-17.71-6.11-26.9.01-.1.02-.21.02-.33,0-.32-.08-.64-.24-.94-.66-4.02-1.24-8.08-1.72-12.19,1.11,1.27,2.28,2.52,3.51,3.74,12.79,12.64,28.21,18.96,46.27,18.96.03,0,.07-.01.1-.01l-59.61-62.61c10.34.62,19.97,3.73,28.92,9.36.22.13.46.22.72.28,22.39,3.98,44.29,3.53,65.72-1.33,11.08,14.39,25.82,21.59,44.19,21.59,15.42,0,28.58-5.39,39.48-16.17,10.42-10.31,15.86-22.67,16.31-37.06h33.88c.14,0,.27-.01.39-.03.14-.03.26-.07.38-.12.12-.04.24-.11.35-.18.11-.08.22-.16.31-.26.09-.09.18-.19.25-.3.08-.1.15-.22.19-.35.05-.11.09-.25.11-.37.02-.13.05-.25.05-.39s-.02-.27-.05-.39c-.02-.13-.07-.26-.11-.38-.04-.11-.11-.23-.19-.35-.07-.1-.16-.21-.25-.3-.09-.09-.19-.17-.31-.25-.11-.08-.22-.13-.35-.19-.12-.04-.25-.09-.38-.11-.12-.02-.26-.03-.39-.03h-33.88c-.07-2.33-.27-4.6-.61-6.83l24.88-4.89c.26-.05.5-.16.73-.3.21-.15.4-.34.55-.55.15-.22.25-.46.3-.72.06-.26.06-.51,0-.78-.02-.12-.07-.25-.11-.37-.05-.12-.11-.23-.19-.35-.08-.11-.16-.21-.25-.3-.09-.1-.19-.18-.3-.25-.11-.07-.24-.13-.35-.18-.12-.05-.25-.09-.38-.11-.12-.03-.26-.05-.4-.05s-.26.01-.4.05l-24.84,4.88c-.51-2.25-1.16-4.46-1.96-6.6l37.97-15.56c.12-.05.24-.11.35-.19"/>
  </g>
  <path class="cls-2" d="M336.48,193.09c-.12-.17-.27-.31-.44-.43-.17-.13-.35-.22-.54-.29-12.43-5.08-24.87-5.07-37.31.03-11.43,4.69-22.87,4.69-34.31,0-.04-.02-.1-.03-.15-.05-12.42-5.06-24.85-5.05-37.28.05-.25.1-.47.25-.65.44-.19.19-.34.4-.44.64-.01.02-.01.03-.02.06-.09.23-.14.47-.14.71s.06.51.16.76c.02.06.04.1.07.16.09.16.19.31.32.45.13.13.27.25.43.35.16.09.33.17.51.21.18.04.36.08.54.08h.01c.32,0,.62-.07.9-.21,11.41-4.64,22.8-4.63,34.19.05.06.02.1.03.16.06,12.42,5.06,24.85,5.04,37.26-.06,11.45-4.69,22.88-4.69,34.31,0,.25.1.51.16.78.16.14,0,.27-.01.39-.05.14-.02.26-.05.38-.11.12-.04.24-.11.35-.19.11-.07.22-.15.31-.25.09-.09.18-.19.25-.3.08-.11.14-.22.19-.35.05-.12.09-.25.11-.37.02-.13.05-.27.05-.39,0-.21-.03-.41-.1-.61-.06-.19-.16-.38-.27-.55"/>
  <path class="cls-2" d="M208.37,217.17c5.9,0,11.88-1.22,17.89-3.68,11.91-4.88,23.77-4.96,35.95,0,5.4,2.22,10.87,3.44,16.28,3.64,6.51.26,13.05-.98,19.52-3.64,6.45-2.64,12.93-3.88,19.36-3.67l.83.03c5.18.27,10.45,1.48,15.65,3.61.99.4,2.14-.07,2.56-1.05.4-.99-.07-2.12-1.06-2.53-5.61-2.3-11.31-3.61-16.94-3.9l-.91-.03c-6.95-.22-14.02,1.1-20.98,3.97-5.95,2.44-11.95,3.57-17.88,3.34-4.94-.18-9.96-1.3-15.08-3.41-12.83-5.24-25.79-5.26-38.91.11-10.85,4.44-21.8,4.43-32.68-.04-.15-.07-.28-.11-.42-.16-1.05-.29-2.13.31-2.42,1.34-.3,1.02.29,2.09,1.34,2.39,5.93,2.44,11.95,3.68,17.91,3.68"/>
  <rect class="cls-2" x="376.57" y="14.8" width="6.26" height="323.4"/>
</svg>